<?xml version="1.0" encoding="utf-8"?>
<!-- Generator: Adobe Illustrator 21.0.0, SVG Export Plug-In . SVG Version: 6.00 Build 0)  -->
<svg version="1.1" id="图层_1" xmlns="http://www.w3.org/2000/svg" xmlns:xlink="http://www.w3.org/1999/xlink" x="0px" y="0px"
	 viewBox="0 0 158.119 211.882" style="enable-background:new 0 0 158.119 211.882;" xml:space="preserve">
<style type="text/css">
	.st0{fill:#00A1FF;}
	.st1{fill:#00C4D6;}
	.st2{fill:#006EFF;}
</style>
<g>
	<g>
		<polygon points="5.318,140.057 5.318,143.098 14.936,143.098 14.936,167.891 18.266,167.891 18.266,143.098 27.884,143.098 
			27.884,140.057 		"/>
		<path d="M87.714,162.778c0-0.175-0.207-0.267-0.336-0.149c-2.168,1.957-5.317,2.72-6.693,2.72c-4.467,0-7.353-2.995-7.353-7.631
			c0-4.636,2.886-7.631,7.353-7.631c1.38,0,4.432,0.387,6.697,2.34c0.131,0.113,0.333,0.02,0.333-0.153v-3.067
			c-1.365-0.859-4.237-2.185-7.207-2.185c-6.17,0-10.315,4.298-10.315,10.696c0,6.397,4.145,10.696,10.315,10.696
			c2.551,0,5.05-0.688,7.207-2.194V162.778z"/>
		<path d="M44.202,162.122c0-0.195-0.246-0.275-0.364-0.12c-1.479,1.949-5.018,3.523-7.194,3.523c-2.08,0-4.035-0.686-5.103-1.79
			c-1.296-1.34-1.999-3.182-1.983-5.075h15.573v-0.238c0-4.392-0.748-6.882-2.669-8.882c-1.604-1.67-3.812-2.516-6.562-2.516
			c-5.826,0-9.59,4.169-9.59,10.63c0.213,6.721,4.031,10.734,10.214,10.734c2.948,0,5.443-0.992,7.677-2.943V162.122z
			 M41.984,155.799H29.552l0.005-0.062c0.135-1.773,0.917-3.299,2.264-4.413c1.075-0.889,2.492-1.379,3.99-1.379
			c3.629,0,5.993,2.22,6.17,5.795L41.984,155.799z"/>
		<path d="M58.216,147.025c-2.549,0-4.708,0.852-6.156,2.413v-1.951h-3.145v20.445h3.215v-11.65c0-1.924,0.589-3.56,1.657-4.606
			c1.152-1.128,2.575-1.65,4.344-1.596c2.52,0.076,5.062,1.744,5.062,5.298v12.553h3.216v-12.704c0-2.519-0.8-4.618-2.313-6.07
			C62.642,147.763,60.609,147.025,58.216,147.025z"/>
		<path d="M108.717,162.122c0-0.195-0.246-0.275-0.364-0.12c-1.479,1.949-5.018,3.523-7.194,3.523c-2.08,0-4.035-0.686-5.103-1.79
			c-1.296-1.34-1.999-3.182-1.983-5.075h15.573v-0.238c0-4.392-0.748-6.882-2.669-8.882c-1.604-1.67-3.812-2.516-6.562-2.516
			c-5.826,0-9.59,4.169-9.59,10.63c0.213,6.721,4.031,10.734,10.214,10.734c2.948,0,5.443-0.992,7.677-2.943V162.122z
			 M106.499,155.799H94.067l0.005-0.062c0.135-1.773,0.917-3.299,2.264-4.413c1.075-0.889,2.492-1.379,3.99-1.379
			c3.629,0,5.993,2.22,6.17,5.795L106.499,155.799z"/>
		<path d="M122.679,147.025c-2.549,0-4.708,0.852-6.156,2.413v-1.951h-3.145v20.445h3.215v-11.65c0-1.924,0.589-3.56,1.657-4.606
			c1.152-1.128,2.575-1.65,4.344-1.596c2.52,0.076,5.062,1.744,5.062,5.298v12.553h3.216v-12.704c0-2.519-0.8-4.618-2.313-6.07
			C127.104,147.763,125.071,147.025,122.679,147.025z"/>
		<path d="M141.388,168.204c1.951-0.107,4.187-0.951,4.187-0.951v-3.079c0-0.139-0.137-0.238-0.268-0.191
			c-0.763,0.269-2.53,0.815-3.447,0.947c-0.336,0.053-0.632,0.101-0.853-0.087c-0.146-0.124-0.22-0.29-0.22-0.649v-13.734h5.886
			v-2.974h-5.886v-5.448h-3.341v5.448h-3.354v2.974h3.354v14.056c0,1.209,0.368,2.145,1.094,2.782
			C139.219,167.893,140.209,168.204,141.388,168.204z"/>
	</g>
	<g>
		<path d="M51.113,204.131c0-0.184-0.227-0.273-0.35-0.137c-2.245,2.482-5.662,4.572-9.999,4.572
			c-6.436,0-10.595-4.447-10.595-11.329c0-7.012,3.962-11.369,10.342-11.369c3.709,0,7.576,1.774,9.887,4.176
			c0.126,0.131,0.346,0.041,0.346-0.14v-3.549c-2.607-2.349-6.388-3.764-10.235-3.764c-4.006,0-7.398,1.4-9.809,4.05
			c-2.388,2.624-3.65,6.287-3.65,10.595c0,8.76,5.511,14.645,13.714,14.645c3.914,0,7.735-1.451,10.35-3.865V204.131z"/>
		<path d="M124.829,192.833c-1.721-1.866-4.599-2.544-6.67-2.544c-2.766,0-5.249,1.032-6.992,2.905
			c-1.792,1.927-2.739,4.599-2.739,7.727c0,7.426,4.927,10.75,9.81,10.75c2.853,0,5.207-1.02,6.591-2.825v2.351h3.319v-27.832
			h-3.319V192.833z M124.741,201c0,3.8-2.206,7.647-6.423,7.647c-3.167,0-6.575-2.343-6.575-7.488c0-3.78,1.996-7.849,6.378-7.849
			C123.007,193.31,124.741,197.453,124.741,201z"/>
		<rect x="55.518" y="183.366" width="3.369" height="27.832"/>
		<path d="M101.341,201.16c0,5.544-3.197,7.511-5.936,7.511c-2.654,0-5.474-1.835-5.474-5.236v-12.67h-3.168v12.613
			c0,4.884,3.487,8.295,8.481,8.295c2.765,0,4.924-0.932,6.295-2.705v2.224h3.021v-20.428h-3.218V201.16z"/>
		<path d="M73.208,190.33c-5.93,0-9.914,4.288-9.914,10.671s3.984,10.671,9.914,10.671c5.93,0,9.914-4.288,9.914-10.671
			S79.137,190.33,73.208,190.33z M66.37,200.979l-0.002-0.007c0.012-4.524,2.758-7.56,6.839-7.56c4.09,0,6.839,3.05,6.839,7.589
			c-0.001,4.538-2.75,7.589-6.839,7.589C69.12,208.59,66.374,205.515,66.37,200.979z"/>
	</g>
	<g>
		<path class="st0" d="M147.636,52.033c-6.62-6.75-15.843-11.004-26.101-11.004c-8.864,0-16.496,3.055-23.159,8.484
			c-2.906,2.363-5.955,5.196-9.786,8.92c-1.904,1.847-57.105,55.411-57.105,55.411c2.892,0.413,6.873,0.536,10.421,0.559
			c3.325,0.02,66.748,0.013,69.404,0.013c5.342,0,8.82-0.007,12.558-0.28c8.564-0.626,16.659-3.768,23.202-10.192
			C161.595,89.68,161.815,66.525,147.636,52.033 M137.025,93.681c-2.816,2.786-7.838,5.951-16.083,6.231
			c-3.811,0.13-8.261,0.143-10.298,0.143H66.346c16.116-15.654,30.175-29.307,31.77-30.854c1.461-1.421,4.75-4.563,7.582-7.116
			c6.221-5.602,11.823-6.73,15.783-6.693c6.207,0.057,11.852,2.593,15.89,6.683C146.002,70.898,145.799,84.997,137.025,93.681"/>
		<path class="st1" d="M58.573,48.588c-6.49-4.856-13.753-7.569-21.987-7.559c-10.258,0-19.481,4.254-26.101,11.004
			C-3.695,66.525-3.478,89.681,11.05,103.946c5.835,5.728,12.901,8.844,20.436,9.895l14.212-13.79c-2.3-0.01-5.595-0.043-8.524-0.14
			c-8.241-0.283-13.264-3.445-16.08-6.231c-8.774-8.684-8.977-22.783-0.346-31.607c4.034-4.091,9.679-6.624,15.886-6.683
			c3.891-0.017,9.17,1.112,15.134,6.058c2.846,2.36,9.17,7.918,11.942,10.418c0.143,0.126,0.313,0.14,0.476,0.003l9.789-9.549
			c0.166-0.163,0.156-0.386-0.01-0.536C69.261,57.532,62.591,51.577,58.573,48.588"/>
		<path class="st2" d="M125.384,32.742C118.63,13.666,100.447,0,79.059,0c-24.53,0-44.864,18.04-48.545,41.539
			c1.974-0.333,4.001-0.509,6.071-0.509c2.879-0.003,5.638,0.333,8.288,0.969c0.053,0.013,0.107,0.02,0.156,0.03
			c3.325-15.867,17.351-27.649,34.03-27.649c13.893,0,26.081,8.378,31.573,20.25c0.087,0.19,0.233,0.25,0.383,0.21
			c4.134-1.135,9.09-1.797,13.873-1.445C125.354,33.431,125.533,33.168,125.384,32.742"/>
	</g>
</g>
</svg>
